<svg xmlns="http://www.w3.org/2000/svg" viewBox="0 0 88.99 75.1"><defs><style>.cls-1{opacity:0.8;}.cls-2{fill:#730202;}</style></defs><g id="Capa_2" data-name="Capa 2"><g id="MESAS"><g class="cls-1"><path class="cls-2" d="M87.63,59.15,53.45,5a10.65,10.65,0,0,0-18,0l-34,54.18v.1A10.39,10.39,0,0,0,0,64.53,10.61,10.61,0,0,0,10.57,75.1H78.41A10.61,10.61,0,0,0,89,64.53,9.87,9.87,0,0,0,87.63,59.15Zm-9.11,9.73H10.57a4.37,4.37,0,0,1-4.35-4.35,4.72,4.72,0,0,1,.51-2.07L40.81,8.39a4.4,4.4,0,0,1,7.46,0l34.08,54a3.81,3.81,0,0,1,.52,2.17A4.37,4.37,0,0,1,78.52,68.88Z"/><path class="cls-2" d="M44.54,54.9a4,4,0,0,0-3,1.24,4.16,4.16,0,0,0-1.25,3,3.66,3.66,0,0,0,1.35,3.1,4.53,4.53,0,0,0,6,0,3.89,3.89,0,0,0,1.24-3.1,4.16,4.16,0,0,0-1.24-3A4.56,4.56,0,0,0,44.54,54.9Z"/><path class="cls-2" d="M44.75,20.2a4.21,4.21,0,0,0-3.32,1.35,5.25,5.25,0,0,0-1.24,3.72c0,1.14.1,3.11.21,5.7l.93,13.68a13.58,13.58,0,0,0,.83,3.93,2.3,2.3,0,0,0,2.17,1.35,2.16,2.16,0,0,0,2.18-1.35,11.1,11.1,0,0,0,.83-3.83l1.35-14.09c.1-1.35.2-2.59.2-3.83A11.73,11.73,0,0,0,48.06,22,3.24,3.24,0,0,0,44.75,20.2Z"/></g></g></g></svg>