<svg xmlns="http://www.w3.org/2000/svg" viewBox="0 0 38.95 36.52"><defs><style>.cls-1{fill:#eceff1;}.cls-2{fill:#388e3c;}.cls-3{fill:#2e7d32;}.cls-4{fill:#fafafa;}</style></defs><g id="Capa_2" data-name="Capa 2"><g id="CONTENIDO"><path class="cls-1" d="M37.74,31.65h-17a1.21,1.21,0,0,1-1.21-1.22V6.09a1.22,1.22,0,0,1,1.21-1.22H37.74A1.22,1.22,0,0,1,39,6.09V30.43A1.21,1.21,0,0,1,37.74,31.65Z"/><path class="cls-2" d="M25.56,12.17H20.69a1.22,1.22,0,0,1,0-2.43h4.87a1.22,1.22,0,1,1,0,2.43Z"/><path class="cls-2" d="M25.56,17H20.69a1.22,1.22,0,0,1,0-2.43h4.87a1.22,1.22,0,1,1,0,2.43Z"/><path class="cls-2" d="M25.56,21.91H20.69a1.22,1.22,0,0,1,0-2.43h4.87a1.22,1.22,0,1,1,0,2.43Z"/><path class="cls-2" d="M25.56,26.78H20.69a1.22,1.22,0,0,1,0-2.43h4.87a1.22,1.22,0,1,1,0,2.43Z"/><path class="cls-2" d="M32.87,12.17H30.43a1.22,1.22,0,0,1,0-2.43h2.44a1.22,1.22,0,0,1,0,2.43Z"/><path class="cls-2" d="M32.87,17H30.43a1.22,1.22,0,0,1,0-2.43h2.44a1.22,1.22,0,0,1,0,2.43Z"/><path class="cls-2" d="M32.87,21.91H30.43a1.22,1.22,0,0,1,0-2.43h2.44a1.22,1.22,0,0,1,0,2.43Z"/><path class="cls-2" d="M32.87,26.78H30.43a1.22,1.22,0,0,1,0-2.43h2.44a1.22,1.22,0,0,1,0,2.43Z"/><path class="cls-3" d="M21.47.28a1.21,1.21,0,0,0-1-.26L1,3.68A1.2,1.2,0,0,0,0,4.87V31.65a1.22,1.22,0,0,0,1,1.2L20.47,36.5l.22,0a1.22,1.22,0,0,0,1.22-1.22V1.22A1.22,1.22,0,0,0,21.47.28Z"/><path class="cls-4" d="M16.74,22.33l-3.85-4.4,3.89-5a1.2,1.2,0,0,0-.21-1.7,1.21,1.21,0,0,0-1.71.21l-3.6,4.63-3-3.47a1.22,1.22,0,0,0-1.83,1.6L9.74,18l-3.4,4.36a1.23,1.23,0,0,0,.21,1.71,1.2,1.2,0,0,0,.75.26,1.23,1.23,0,0,0,1-.47l3.1-4,3.54,4a1.21,1.21,0,0,0,.92.42,1.25,1.25,0,0,0,.8-.3A1.23,1.23,0,0,0,16.74,22.33Z"/></g></g></svg>